<svg width="239" height="54" viewBox="0 0 239 54" fill="none" xmlns="http://www.w3.org/2000/svg"><g clip-path="url(#clip0)"><path fill-rule="evenodd" clip-rule="evenodd" d="M184.582 4.18519H179.606C179.204 4.17456 178.806 4.26399 178.448 4.44513C178.169 4.59069 177.921 4.78834 177.719 5.027C177.561 5.22605 177.419 5.43651 177.293 5.65657L167.869 21.3052L168.093 5.65657C168.098 5.4328 168.08 5.2091 168.039 4.98885C168.001 4.77474 167.897 4.57696 167.742 4.42128C167.639 4.33505 167.52 4.26961 167.391 4.22869C167.262 4.18777 167.126 4.17218 166.991 4.1828H163.708C163.382 4.17717 163.062 4.25969 162.781 4.42128C162.53 4.57261 162.307 4.76451 162.122 4.98885C161.952 5.20043 161.798 5.42357 161.66 5.65657L152.381 21.3052L152.51 5.65657C152.51 5.44498 152.487 5.23401 152.442 5.027C152.391 4.7972 152.26 4.59176 152.073 4.44513C151.782 4.24912 151.432 4.15732 151.08 4.18519H145.905C145.654 4.17728 145.409 4.25576 145.212 4.40697C145.033 4.54465 144.892 4.72317 144.801 4.92684C144.711 5.11201 144.66 5.31326 144.652 5.51826L144.798 33.5008C144.799 33.5856 144.807 33.6702 144.823 33.7535C144.854 33.9275 144.939 34.088 145.066 34.2138C145.159 34.3041 145.271 34.3734 145.394 34.4171C145.517 34.4607 145.648 34.4776 145.778 34.4666H149.913C150.19 34.4685 150.465 34.4116 150.718 34.2996C150.925 34.2077 151.117 34.0855 151.287 33.9372C151.41 33.8241 151.522 33.6995 151.62 33.5651C151.661 33.5137 151.699 33.4595 151.732 33.403L160.906 18.7202L161.12 33.403C161.118 33.4573 161.122 33.5117 161.132 33.5651C161.153 33.6925 161.195 33.8157 161.256 33.93C161.334 34.0795 161.453 34.2049 161.599 34.2925C161.811 34.4119 162.053 34.4698 162.297 34.4594H166.242C166.551 34.4635 166.854 34.3753 167.11 34.2066C167.307 34.0832 167.482 33.9275 167.626 33.7464C167.745 33.589 167.801 33.5079 167.806 33.4936L184.981 5.5111C185.098 5.32996 185.18 5.1296 185.224 4.91969C185.256 4.72176 185.285 4.25435 184.582 4.18519ZM203.946 28.0326H188.972L190.825 21.9563H203.406C203.837 21.9835 204.263 21.8545 204.603 21.5938C204.887 21.3316 205.086 20.9932 205.175 20.6208L206.269 17.0318C206.408 16.6097 206.42 16.2877 206.296 16.0493C206.172 15.8108 205.848 15.6963 205.323 15.6963H192.734L194.267 10.6884H208.443C208.873 10.7174 209.299 10.5901 209.64 10.3307C209.922 10.0653 210.12 9.72584 210.211 9.35291L211.379 5.53734C211.515 5.11524 211.527 4.7933 211.403 4.55721C211.279 4.32112 210.956 4.20427 210.43 4.20427H190.193C189.763 4.17385 189.337 4.29948 188.996 4.55721C188.713 4.8225 188.514 5.1631 188.425 5.53734L179.998 33.1526C179.861 33.5675 179.847 33.8966 179.973 34.1256C180.1 34.3545 180.421 34.4785 180.946 34.4857H201.974C202.405 34.5135 202.832 34.3854 203.173 34.1256C203.455 33.8622 203.652 33.5241 203.742 33.1526L204.895 29.3776C205.029 28.965 205.043 28.6335 204.917 28.4046C204.79 28.1756 204.474 28.0326 203.946 28.0254V28.0326ZM233.292 18.7798C233.396 18.7416 233.598 18.6438 233.895 18.496C234.273 18.2997 234.635 18.0748 234.977 17.8235C236.033 17.0313 236.919 16.0426 237.584 14.9141C238.031 14.1554 238.383 13.3468 238.633 12.5055C238.957 11.4976 239.066 10.435 238.954 9.38392C238.838 8.40824 238.437 7.48625 237.798 6.7297C237.154 5.95466 236.205 5.33463 234.96 4.88153C233.715 4.42843 232.139 4.19234 230.235 4.19234H217.101C216.673 4.16184 216.247 4.28751 215.907 4.54528C215.626 4.81267 215.427 5.15234 215.333 5.52541L206.904 33.1407C206.78 33.5508 206.76 33.8847 206.882 34.1136C207.003 34.3426 207.327 34.4737 207.855 34.4737H221.654C223.228 34.4807 224.797 34.2932 226.324 33.9157C227.75 33.5638 229.113 33.0009 230.366 32.2464C231.579 31.5159 232.65 30.5791 233.528 29.4801C234.435 28.3333 235.114 27.0292 235.529 25.6359C235.805 24.7934 235.934 23.9115 235.911 23.027C235.896 22.3718 235.758 21.7249 235.502 21.1192C235.295 20.6492 235.013 20.2139 234.668 19.8291C234.415 19.5452 234.126 19.2929 233.81 19.0779C233.649 18.968 233.48 18.8707 233.304 18.7869L233.292 18.7798ZM224.145 22.1327H225.227C225.884 22.1144 226.54 22.1949 227.173 22.3712C227.409 22.4345 227.629 22.545 227.82 22.6955C228.011 22.8461 228.168 23.0336 228.282 23.2464C228.493 23.6542 228.496 24.2194 228.282 24.9348C228.037 25.8629 227.454 26.6708 226.642 27.2051C225.771 27.7135 224.768 27.9621 223.756 27.9205H215.851L217.573 22.1256L224.145 22.1327ZM219.524 15.9133L221.122 10.6669H228.257C228.941 10.6521 229.625 10.7226 230.291 10.8768C230.518 10.9211 230.734 11.013 230.922 11.1464C231.111 11.2797 231.268 11.4513 231.383 11.6494C231.575 12.0214 231.575 12.5485 231.383 13.2233C231.152 14.0712 230.599 14.8006 229.838 15.2623C229.077 15.7249 228.007 15.961 226.655 15.961H226.042L219.524 15.9133Z" fill="#423E3E"></path><path fill-rule="evenodd" clip-rule="evenodd" d="M17.7493 0.00292969C24.3889 0.00292969 24.0727 0.00293231 27.4776 0.0577813C26.5388 1.79626 26.4586 1.75333 25.5879 3.52757C29.6105 3.54188 33.7061 3.52757 37.9769 3.56573C36.3377 6.82805 35.6299 8.1325 33.8959 11.2804C29.6494 11.1134 26.2786 11.1444 22.0346 11.1444C19.9698 14.8789 17.9779 17.8932 15.9909 21.673C15.6723 22.7223 14.3128 24.5347 15.0667 25.646C16.7254 26.3996 18.761 26.185 20.3978 25.7032C22.9734 24.7923 26.0475 23.8384 28.251 22.2192C31.0892 19.4266 32.889 15.468 35.2335 11.5117C38.6384 11.3662 39.9396 11.4831 43.3858 11.5522C41.0802 16.2311 38.957 18.3416 36.0896 25.0999C40.5549 24.8185 44.8134 25.5387 46.4989 22.739C48.7704 19.1786 50.4899 15.4179 52.6009 11.7692C56.2782 11.6929 58.1947 11.6786 61.8769 11.7096C59.4618 16.2668 57.0857 20.3877 54.712 24.9592C61.7845 25.4624 62.232 24.4465 65.863 21.1436C67.9741 17.9099 68.694 16.1357 71.6173 11.1993C72.3761 11.2446 74.1929 11.1277 81.2411 11.2827C80.9127 12.2843 81.2411 11.2827 80.4628 13.1905C83.7145 12.1031 88.9751 10.9179 92.684 13.6937C94.5688 10.5936 95.3252 8.9457 98.735 3.04824C104.445 2.83838 105.263 2.90516 109.064 2.80977C106.586 7.35746 105.854 8.58083 104.373 11.204C107.695 11.1444 113.079 10.4552 115.29 13.4075C117.674 15.9783 116.642 19.5721 116.115 22.5983C118.605 19.2597 121.032 15.6659 124.858 13.6889C128.506 11.7645 132.884 10.1118 136.994 11.588C139.54 12.3416 141.566 14.5641 141.829 17.1874C142.413 21.3344 140.143 25.2692 137.337 28.1905C133.309 32.2231 127.421 34.9322 121.584 33.9735C119.242 33.5562 118.325 31.2215 116.664 29.7311C111.613 31.4004 105.924 33.9497 100.525 34.1476C98.1951 34.3145 94.3037 33.0506 92.217 32.1993C91.018 32.7668 91.1955 33.3201 90.0865 33.5133C86.6184 33.6587 84.1206 33.3654 80.8446 33.3177C82.7676 30.1778 84.6322 27.0029 86.4384 23.7931C85.6626 23.8551 84.5511 23.7668 83.7631 23.8288C84.0817 22.3074 84.7359 21.6945 84.9062 20.1516C82.783 19.3718 80.1904 20.3901 78.4588 21.4727C73.8038 24.0077 72.2959 29.4759 69.5014 33.5562C66.2887 33.5562 64.1776 33.5562 60.9575 33.5777C60.6 33.3177 60.3106 32.5856 59.9531 32.3257C57.6718 32.9052 54.0699 33.9044 51.6962 33.9354C49.5608 33.7899 47.3379 32.4807 45.5528 31.4624C40.9829 33.2796 36.4884 34.3241 31.5051 33.5419C29.2725 33.1389 29.3163 31.7343 27.7062 30.3201C21.9811 32.3376 14.4806 34.9703 8.24962 33.9282C4.82039 33.2891 1.62221 29.9099 2.67773 26.3328C4.24642 21.0626 7.97479 16.1858 10.3777 11.2708C6.70039 11.2494 3.68218 11.2255 0.00488281 11.0323L1.43251 8.35428L2.71908 6.14125L4.27074 3.51803L15.5215 3.56096L17.7493 0.00292969ZM100.951 21.0792C102.514 19.0236 104.499 18.8781 107.702 18.7541C108.755 21.8543 106.206 27.2796 100.406 26.3996C98.6012 25.2502 99.8489 22.274 100.951 21.0792ZM126.025 21.0792C127.592 19.0236 129.574 18.8781 132.779 18.7541C133.83 21.8543 131.281 27.2796 125.483 26.3996C123.678 25.2502 124.924 22.274 126.025 21.0792Z" fill="#DE2420"></path><path d="M4.9748 50.616C4.89 50.4087 4.77551 50.1452 4.63133 49.8256C4.49564 49.506 4.34723 49.1604 4.1861 48.789C4.02496 48.4175 3.85111 48.0374 3.66453 47.6487C3.48644 47.2513 3.31683 46.8798 3.15569 46.5343C2.99456 46.1801 2.84191 45.8648 2.69773 45.5884C2.56204 45.3119 2.45179 45.1003 2.36699 44.9534C2.2737 45.9728 2.19737 47.0785 2.13801 48.2707C2.07864 49.4541 2.02776 50.6506 1.98536 51.86H0.776855C0.810778 51.0825 0.848941 50.3007 0.891345 49.5146C0.933748 48.7199 0.980392 47.9424 1.03128 47.1822C1.09064 46.4134 1.15001 45.6661 1.20937 44.9405C1.27722 44.2148 1.3493 43.5281 1.42563 42.8802H2.50692C2.7359 43.2603 2.98184 43.7095 3.24474 44.2278C3.50764 44.7461 3.77054 45.2903 4.03344 45.8605C4.29635 46.422 4.55077 46.9878 4.79671 47.558C5.04265 48.1195 5.26739 48.6335 5.47092 49.1C5.67446 48.6335 5.8992 48.1195 6.14514 47.558C6.39108 46.9878 6.6455 46.422 6.9084 45.8605C7.1713 45.2903 7.43421 44.7461 7.69711 44.2278C7.96001 43.7095 8.20595 43.2603 8.43493 42.8802H9.51622C9.80456 45.7741 10.0208 48.7674 10.165 51.86H8.95649C8.91409 50.6506 8.86321 49.4541 8.80384 48.2707C8.74448 47.0785 8.66815 45.9728 8.57486 44.9534C8.49005 45.1003 8.37556 45.3119 8.23139 45.5884C8.0957 45.8648 7.94729 46.1801 7.78616 46.5343C7.62502 46.8798 7.45117 47.2513 7.26459 47.6487C7.0865 48.0374 6.91688 48.4175 6.75575 48.789C6.59462 49.1604 6.44196 49.506 6.29779 49.8256C6.1621 50.1452 6.05185 50.4087 5.96705 50.616H4.9748Z" fill="#423E3E"></path><path d="M17.9896 51.86C17.8455 51.4713 17.7098 51.0912 17.5826 50.7197C17.4553 50.3396 17.3239 49.9552 17.1882 49.5664H13.1938L12.3924 51.86H11.1075C11.4468 50.9098 11.7648 50.0329 12.0616 49.2295C12.3584 48.4175 12.6468 47.6487 12.9267 46.923C13.215 46.1974 13.4991 45.5063 13.779 44.8498C14.0588 44.1846 14.3514 43.5281 14.6567 42.8802H15.7889C16.0942 43.5281 16.3868 44.1846 16.6666 44.8498C16.9465 45.5063 17.2264 46.1974 17.5062 46.923C17.7946 47.6487 18.0872 48.4175 18.384 49.2295C18.6808 50.0329 18.9988 50.9098 19.3381 51.86H17.9896ZM16.832 48.5298C16.5606 47.7783 16.2893 47.0526 16.0179 46.3529C15.755 45.6445 15.4793 44.9664 15.191 44.3185C14.8942 44.9664 14.6101 45.6445 14.3387 46.3529C14.0758 47.0526 13.8129 47.7783 13.55 48.5298H16.832Z" fill="#423E3E"></path><path d="M22.8756 42.7895C24.1138 42.7895 25.0636 43.0313 25.7251 43.5151C26.3951 43.9902 26.7301 44.7029 26.7301 45.6532C26.7301 46.1715 26.6368 46.6164 26.4502 46.9878C26.2721 47.3506 26.0092 47.6487 25.6615 47.8819C25.3223 48.1065 24.9067 48.2707 24.4149 48.3743C23.923 48.478 23.3675 48.5298 22.7484 48.5298H21.7689V51.86H20.5349V43.0097C20.8826 42.9234 21.2685 42.8672 21.6926 42.8413C22.1251 42.8067 22.5194 42.7895 22.8756 42.7895ZM22.9774 43.8909C22.4516 43.8909 22.0487 43.9038 21.7689 43.9298V47.4543H22.6975C23.1215 47.4543 23.5032 47.4284 23.8424 47.3766C24.1816 47.3161 24.4657 47.2211 24.6947 47.0915C24.9322 46.9533 25.1145 46.7675 25.2417 46.5343C25.3689 46.3011 25.4325 46.003 25.4325 45.6402C25.4325 45.2947 25.3647 45.0096 25.229 44.785C25.1018 44.5604 24.9237 44.3833 24.6947 44.2537C24.4742 44.1155 24.2156 44.0205 23.9187 43.9686C23.6219 43.9168 23.3081 43.8909 22.9774 43.8909Z" fill="#423E3E"></path><path d="M34.8003 42.8802C34.5374 43.1739 34.2406 43.5021 33.9098 43.865C33.5791 44.2191 33.2314 44.5863 32.8667 44.9664C32.5105 45.3378 32.1543 45.705 31.7981 46.0678C31.4419 46.4306 31.107 46.7675 30.7932 47.0785C31.1578 47.3377 31.5437 47.6573 31.9508 48.0374C32.3579 48.4175 32.7565 48.8235 33.1466 49.2555C33.5367 49.6874 33.9013 50.128 34.2406 50.5772C34.5883 51.0264 34.8766 51.454 35.1056 51.86H33.6554C33.401 51.454 33.1084 51.048 32.7777 50.642C32.4469 50.2273 32.095 49.8342 31.7218 49.4628C31.3571 49.0827 30.984 48.7328 30.6024 48.4132C30.2292 48.0936 29.8645 47.8214 29.5083 47.5968V51.86H28.2744V42.8802H29.5083V46.8453C29.8052 46.5602 30.1317 46.2406 30.4879 45.8864C30.8441 45.5236 31.196 45.1608 31.5437 44.7979C31.8914 44.4351 32.2179 44.0896 32.5232 43.7613C32.837 43.4244 33.0999 43.1307 33.3119 42.8802H34.8003Z" fill="#423E3E"></path><path d="M36.2748 51.86V42.8802H41.6558V43.9557H37.5087V46.625H41.1978V47.6746H37.5087V50.7845H41.9738V51.86H36.2748Z" fill="#423E3E"></path><path d="M49.432 42.8802V43.9686H46.6588V51.86H45.4249V43.9686H42.6517V42.8802H49.432Z" fill="#423E3E"></path><path d="M50.735 51.86V42.8802H51.9435V49.5276C52.2149 49.0697 52.5456 48.5471 52.9358 47.9597C53.3343 47.3722 53.7541 46.7762 54.1951 46.1715C54.6446 45.5581 55.0941 44.9664 55.5436 44.3962C56.0015 43.8174 56.4298 43.3121 56.8284 42.8802H57.8079V51.86H56.5994V44.8498C56.362 45.1262 56.1033 45.4458 55.8234 45.8086C55.5436 46.1715 55.2552 46.5602 54.9584 46.9749C54.6616 47.3809 54.3605 47.8042 54.0552 48.2447C53.7584 48.6853 53.47 49.1216 53.1902 49.5535C52.9103 49.9768 52.6474 50.3871 52.4015 50.7845C52.164 51.1819 51.952 51.5404 51.7654 51.86H50.735Z" fill="#423E3E"></path><path d="M65.5365 42.8802H66.7704V51.86H65.5365V47.7135H61.224V51.86H59.9901V42.8802H61.224V46.625H65.5365V42.8802Z" fill="#423E3E"></path><path d="M74.1369 42.8802V43.9686H70.1933V51.86H68.9594V42.8802H74.1369Z" fill="#423E3E"></path><path d="M78.6558 51.86V54.2572H77.4855V50.7845H78.4141C78.8466 50.2835 79.1774 49.7306 79.4064 49.1259C79.6438 48.5125 79.8134 47.869 79.9152 47.1951C80.0255 46.5127 80.0891 45.8086 80.106 45.083C80.1315 44.3574 80.1484 43.6231 80.1569 42.8802H85.1436V50.7845H86.2503V54.2572H85.08V51.86H78.6558ZM81.3654 43.9557C81.34 44.5258 81.3103 45.1089 81.2764 45.705C81.2509 46.2924 81.1873 46.8798 81.0855 47.4673C80.9923 48.0461 80.8523 48.6162 80.6658 49.1777C80.4792 49.7392 80.2163 50.2748 79.8771 50.7845H83.9096V43.9557H81.3654Z" fill="#423E3E"></path><path d="M90.8695 43.9557C90.8526 44.4394 90.8356 44.9102 90.8187 45.3681C90.8017 45.8173 90.7762 46.2579 90.7423 46.6898C90.7084 47.1131 90.6575 47.5277 90.5897 47.9337C90.5218 48.3398 90.4285 48.7371 90.3098 49.1259C90.1911 49.5146 90.0427 49.8818 89.8646 50.2273C89.695 50.5642 89.4787 50.8622 89.2158 51.1214C88.9614 51.3719 88.6561 51.5749 88.2999 51.7304C87.9522 51.8859 87.5409 51.9723 87.0659 51.9896L86.926 50.9011C87.5197 50.832 87.9776 50.642 88.2999 50.331C88.6306 50.02 88.902 49.5448 89.114 48.9056C89.3515 48.1799 89.4999 47.3074 89.5593 46.2881C89.6271 45.2601 89.661 44.1241 89.661 42.8802H94.6604V51.86H93.4265V43.9557H90.8695Z" fill="#423E3E"></path><path d="M100.271 43.8909C99.9485 43.8909 99.639 43.9168 99.3422 43.9686C99.0538 44.0205 98.7951 44.1112 98.5662 44.2407C98.3372 44.3703 98.1549 44.5474 98.0192 44.772C97.8835 44.9966 97.8156 45.2774 97.8156 45.6143C97.8156 46.2535 98.0149 46.6984 98.4135 46.9489C98.8206 47.1908 99.427 47.3118 100.233 47.3118H101.505V43.9298C101.411 43.9298 101.301 43.9254 101.174 43.9168C101.064 43.9082 100.932 43.9038 100.78 43.9038C100.635 43.8952 100.466 43.8909 100.271 43.8909ZM100.373 42.7895C100.551 42.7895 100.741 42.7938 100.945 42.8024C101.149 42.8111 101.352 42.824 101.556 42.8413C101.768 42.8586 101.975 42.8802 102.179 42.9061C102.382 42.932 102.569 42.9665 102.739 43.0097V51.86H101.505V48.3484H100.449C100.33 48.3484 100.203 48.3484 100.067 48.3484C99.94 48.3398 99.7662 48.3225 99.5457 48.2966C99.393 48.5039 99.2277 48.7458 99.0496 49.0222C98.8715 49.2986 98.6934 49.5924 98.5153 49.9034C98.3372 50.2143 98.1591 50.5383 97.981 50.8752C97.8114 51.2121 97.6545 51.5404 97.5103 51.86H96.2128C96.3485 51.5231 96.5096 51.1732 96.6962 50.8104C96.8827 50.4476 97.0736 50.102 97.2686 49.7738C97.4722 49.4455 97.663 49.1432 97.8411 48.8667C98.0276 48.5816 98.1888 48.3484 98.3245 48.167C98.1294 48.1065 97.9259 48.0201 97.7139 47.9078C97.5018 47.7955 97.3068 47.64 97.1287 47.4413C96.9506 47.2427 96.8022 46.9965 96.6835 46.7027C96.5732 46.4004 96.5181 46.0419 96.5181 45.6272C96.5181 45.1608 96.6071 44.7504 96.7852 44.3962C96.9633 44.0421 97.2177 43.7483 97.5485 43.5151C97.8877 43.2732 98.2948 43.0918 98.7697 42.9709C99.2446 42.8499 99.7789 42.7895 100.373 42.7895Z" fill="#423E3E"></path><path d="M107.868 42.8802H109.102V51.86H107.868V42.8802Z" fill="#423E3E"></path><path d="M116.831 42.8802H118.065V51.86H116.831V47.7135H112.518V51.86H111.284V42.8802H112.518V46.625H116.831V42.8802Z" fill="#423E3E"></path><path d="M126.143 42.8802V43.9686H123.37V51.86H122.136V43.9686H119.363V42.8802H126.143Z" fill="#423E3E"></path><path d="M127.446 51.86V42.8802H132.827V43.9557H128.68V46.625H132.369V47.6746H128.68V50.7845H133.145V51.86H127.446Z" fill="#423E3E"></path><path d="M137.055 42.7895C138.293 42.7895 139.243 43.0313 139.904 43.5151C140.574 43.9902 140.909 44.7029 140.909 45.6532C140.909 46.1715 140.816 46.6164 140.629 46.9878C140.451 47.3506 140.188 47.6487 139.84 47.8819C139.501 48.1065 139.086 48.2707 138.594 48.3743C138.102 48.478 137.546 48.5298 136.927 48.5298H135.948V51.86H134.714V43.0097C135.062 42.9234 135.447 42.8672 135.871 42.8413C136.304 42.8067 136.698 42.7895 137.055 42.7895ZM137.156 43.8909C136.63 43.8909 136.228 43.9038 135.948 43.9298V47.4543H136.876C137.3 47.4543 137.682 47.4284 138.021 47.3766C138.361 47.3161 138.645 47.2211 138.874 47.0915C139.111 46.9533 139.293 46.7675 139.421 46.5343C139.548 46.3011 139.611 46.003 139.611 45.6402C139.611 45.2947 139.544 45.0096 139.408 44.785C139.281 44.5604 139.103 44.3833 138.874 44.2537C138.653 44.1155 138.394 44.0205 138.098 43.9686C137.801 43.9168 137.487 43.8909 137.156 43.8909Z" fill="#423E3E"></path><path d="M148 42.8802H149.234V51.86H148V47.7135H143.687V51.86H142.453V42.8802H143.687V46.625H148V42.8802Z" fill="#423E3E"></path><path d="M151.423 51.86V42.8802H156.804V43.9557H152.657V46.625H156.346V47.6746H152.657V50.7845H157.122V51.86H151.423Z" fill="#423E3E"></path><path d="M164.58 42.8802V43.9686H161.807V51.86H160.573V43.9686H157.8V42.8802H164.58Z" fill="#423E3E"></path><path d="M164.498 47.4154H167.641V48.5428H164.498V47.4154Z" fill="#423E3E"></path><path d="M173.019 50.616C172.935 50.4087 172.82 50.1452 172.676 49.8256C172.54 49.506 172.392 49.1604 172.231 48.789C172.07 48.4175 171.896 48.0374 171.709 47.6487C171.531 47.2513 171.361 46.8798 171.2 46.5343C171.039 46.1801 170.887 45.8648 170.742 45.5884C170.607 45.3119 170.496 45.1003 170.412 44.9534C170.318 45.9728 170.242 47.0785 170.183 48.2707C170.123 49.4541 170.072 50.6506 170.03 51.86H168.821C168.855 51.0825 168.894 50.3007 168.936 49.5146C168.978 48.7199 169.025 47.9424 169.076 47.1822C169.135 46.4134 169.195 45.6661 169.254 44.9405C169.322 44.2148 169.394 43.5281 169.47 42.8802H170.552C170.781 43.2603 171.026 43.7095 171.289 44.2278C171.552 44.7461 171.815 45.2903 172.078 45.8605C172.341 46.422 172.595 46.9878 172.841 47.558C173.087 48.1195 173.312 48.6335 173.516 49.1C173.719 48.6335 173.944 48.1195 174.19 47.558C174.436 46.9878 174.69 46.422 174.953 45.8605C175.216 45.2903 175.479 44.7461 175.742 44.2278C176.005 43.7095 176.251 43.2603 176.48 42.8802H177.561C177.849 45.7741 178.065 48.7674 178.21 51.86H177.001C176.959 50.6506 176.908 49.4541 176.848 48.2707C176.789 47.0785 176.713 45.9728 176.619 44.9534C176.535 45.1003 176.42 45.3119 176.276 45.5884C176.14 45.8648 175.992 46.1801 175.831 46.5343C175.67 46.8798 175.496 47.2513 175.309 47.6487C175.131 48.0374 174.961 48.4175 174.8 48.789C174.639 49.1604 174.487 49.506 174.342 49.8256C174.207 50.1452 174.096 50.4087 174.012 50.616H173.019Z" fill="#423E3E"></path><path d="M186.034 51.86C185.89 51.4713 185.754 51.0912 185.627 50.7197C185.5 50.3396 185.368 49.9552 185.233 49.5664H181.238L180.437 51.86H179.152C179.491 50.9098 179.809 50.0329 180.106 49.2295C180.403 48.4175 180.691 47.6487 180.971 46.923C181.26 46.1974 181.544 45.5063 181.824 44.8498C182.103 44.1846 182.396 43.5281 182.701 42.8802H183.833C184.139 43.5281 184.431 44.1846 184.711 44.8498C184.991 45.5063 185.271 46.1974 185.551 46.923C185.839 47.6487 186.132 48.4175 186.429 49.2295C186.725 50.0329 187.043 50.9098 187.383 51.86H186.034ZM184.877 48.5298C184.605 47.7783 184.334 47.0526 184.062 46.3529C183.8 45.6445 183.524 44.9664 183.236 44.3185C182.939 44.9664 182.655 45.6445 182.383 46.3529C182.12 47.0526 181.857 47.7783 181.595 48.5298H184.877Z" fill="#423E3E"></path><path d="M193.757 42.8802V43.9686H189.813V51.86H188.58V42.8802H193.757Z" fill="#423E3E"></path><path d="M200.122 51.86C199.978 51.4713 199.842 51.0912 199.715 50.7197C199.588 50.3396 199.456 49.9552 199.32 49.5664H195.326L194.525 51.86H193.24C193.579 50.9098 193.897 50.0329 194.194 49.2295C194.491 48.4175 194.779 47.6487 195.059 46.923C195.347 46.1974 195.631 45.5063 195.911 44.8498C196.191 44.1846 196.484 43.5281 196.789 42.8802H197.921C198.226 43.5281 198.519 44.1846 198.799 44.8498C199.079 45.5063 199.359 46.1974 199.638 46.923C199.927 47.6487 200.219 48.4175 200.516 49.2295C200.813 50.0329 201.131 50.9098 201.47 51.86H200.122ZM198.964 48.5298C198.693 47.7783 198.421 47.0526 198.15 46.3529C197.887 45.6445 197.612 44.9664 197.323 44.3185C197.026 44.9664 196.742 45.6445 196.471 46.3529C196.208 47.0526 195.945 47.7783 195.682 48.5298H198.964Z" fill="#423E3E"></path><path d="M203.616 46.612H204.278C204.558 46.612 204.842 46.5904 205.13 46.5473C205.419 46.5041 205.681 46.4263 205.919 46.314C206.156 46.1931 206.351 46.0333 206.504 45.8346C206.657 45.6359 206.733 45.3854 206.733 45.083C206.733 44.6943 206.568 44.379 206.237 44.1371C205.915 43.8866 205.482 43.7613 204.939 43.7613C204.473 43.7613 204.053 43.8174 203.68 43.9298C203.307 44.0334 203.031 44.1414 202.853 44.2537L202.459 43.23C202.561 43.1609 202.696 43.0961 202.866 43.0357C203.044 42.9665 203.239 42.9061 203.451 42.8542C203.672 42.8024 203.909 42.7635 204.163 42.7376C204.418 42.7031 204.681 42.6858 204.952 42.6858C205.393 42.6858 205.8 42.7333 206.173 42.8283C206.546 42.9234 206.869 43.0702 207.14 43.2689C207.412 43.4589 207.624 43.7051 207.776 44.0075C207.929 44.3012 208.005 44.6511 208.005 45.0571C208.005 45.4717 207.874 45.8605 207.611 46.2233C207.356 46.5861 206.979 46.8496 206.479 47.0137C206.733 47.0828 206.975 47.1822 207.204 47.3118C207.441 47.4327 207.645 47.5925 207.814 47.7912C207.992 47.9813 208.132 48.2059 208.234 48.465C208.344 48.7242 208.4 49.0265 208.4 49.3721C208.4 49.8472 208.31 50.2575 208.132 50.6031C207.963 50.94 207.721 51.2164 207.407 51.4324C207.102 51.6484 206.729 51.8038 206.288 51.8989C205.847 52.0025 205.359 52.0544 204.825 52.0544C204.503 52.0544 204.197 52.0285 203.909 51.9766C203.621 51.9334 203.362 51.8816 203.133 51.8211C202.904 51.752 202.705 51.6786 202.535 51.6008C202.366 51.5231 202.234 51.4583 202.141 51.4065L202.51 50.3698C202.603 50.4217 202.726 50.4821 202.879 50.5512C203.04 50.6204 203.218 50.6851 203.413 50.7456C203.608 50.8061 203.824 50.8579 204.062 50.9011C204.299 50.9443 204.549 50.9659 204.812 50.9659C205.533 50.9659 206.093 50.845 206.491 50.6031C206.898 50.3526 207.102 49.9336 207.102 49.3462C207.102 49.0006 207.03 48.7199 206.886 48.5039C206.75 48.2793 206.559 48.1022 206.313 47.9726C206.076 47.843 205.792 47.7567 205.461 47.7135C205.139 47.6616 204.787 47.6357 204.405 47.6357H203.616V46.612Z" fill="#423E3E"></path><path d="M210.146 51.86V42.8802H211.354V49.5276C211.626 49.0697 211.956 48.5471 212.346 47.9597C212.745 47.3722 213.165 46.7762 213.606 46.1715C214.055 45.5581 214.505 44.9664 214.954 44.3962C215.412 43.8174 215.84 43.3121 216.239 42.8802H217.219V51.86H216.01V44.8498C215.773 45.1262 215.514 45.4458 215.234 45.8086C214.954 46.1715 214.666 46.5602 214.369 46.9749C214.072 47.3809 213.771 47.8042 213.466 48.2447C213.169 48.6853 212.881 49.1216 212.601 49.5535C212.321 49.9768 212.058 50.3871 211.812 50.7845C211.575 51.1819 211.363 51.5404 211.176 51.86H210.146Z" fill="#423E3E"></path><path d="M224.947 42.8802H226.181V51.86H224.947V47.7135H220.635V51.86H219.401V42.8802H220.635V46.625H224.947V42.8802Z" fill="#423E3E"></path><path d="M228.37 42.8802H229.604V51.86H228.37V42.8802Z" fill="#423E3E"></path><path d="M234.165 51.9377C233.987 51.9377 233.792 51.9334 233.58 51.9248C233.377 51.9161 233.169 51.9032 232.957 51.8859C232.753 51.8686 232.55 51.847 232.346 51.8211C232.143 51.7952 231.956 51.7607 231.786 51.7175V43.0097C231.956 42.9665 232.143 42.932 232.346 42.9061C232.55 42.8802 232.753 42.8586 232.957 42.8413C233.169 42.824 233.377 42.8111 233.58 42.8024C233.784 42.7938 233.974 42.7895 234.153 42.7895C234.661 42.7895 235.136 42.8283 235.577 42.9061C236.027 42.9838 236.413 43.1177 236.735 43.3078C237.066 43.4892 237.324 43.7311 237.511 44.0334C237.697 44.3358 237.791 44.7072 237.791 45.1478C237.791 45.6402 237.676 46.0462 237.447 46.3658C237.218 46.6768 236.913 46.9101 236.531 47.0656C237.049 47.2211 237.46 47.4673 237.765 47.8042C238.071 48.1411 238.223 48.6162 238.223 49.2295C238.223 50.128 237.897 50.8061 237.244 51.2639C236.599 51.7131 235.573 51.9377 234.165 51.9377ZM233.008 47.6746V50.8363C233.101 50.845 233.211 50.8536 233.338 50.8622C233.449 50.8709 233.576 50.8795 233.72 50.8882C233.873 50.8882 234.047 50.8882 234.242 50.8882C234.606 50.8882 234.95 50.8666 235.272 50.8234C235.603 50.7715 235.891 50.6851 236.137 50.5642C236.383 50.4433 236.578 50.2748 236.722 50.0588C236.875 49.8429 236.951 49.5708 236.951 49.2425C236.951 48.9488 236.896 48.7026 236.786 48.5039C236.676 48.2966 236.514 48.1324 236.302 48.0115C236.099 47.8906 235.853 47.8042 235.565 47.7523C235.276 47.7005 234.954 47.6746 234.598 47.6746H233.008ZM233.008 46.6639H234.305C234.61 46.6639 234.899 46.6423 235.17 46.5991C235.442 46.5559 235.675 46.4781 235.87 46.3658C236.073 46.2535 236.23 46.1067 236.341 45.9253C236.459 45.7439 236.519 45.5149 236.519 45.2385C236.519 44.9793 236.459 44.7634 236.341 44.5906C236.222 44.4092 236.056 44.2667 235.844 44.163C235.641 44.0507 235.399 43.9686 235.119 43.9168C234.839 43.865 234.543 43.839 234.229 43.839C233.915 43.839 233.669 43.8434 233.491 43.852C233.313 43.8606 233.152 43.8736 233.008 43.8909V46.6639Z" fill="#423E3E"></path></g><defs><clipPath id="clip0"><rect width="239" height="54" fill="white"></rect></clipPath></defs></svg>